<svg xmlns="http://www.w3.org/2000/svg" viewBox="0 0 334.69068 56.27881"><defs><style>.a,.b,.f{fill:none;}.a{stroke:#727070;stroke-width:7.59574px;}.a,.b{stroke-linecap:round;stroke-linejoin:round;}.b{stroke:#878787;stroke-width:2.53191px;}.c{fill:#9e9d9c;}.d{fill:#3d3d3b;}.e{fill:#eeeded;}.f{stroke:#585857;stroke-miterlimit:10;stroke-width:1.89894px;}.g{fill:#c7c6c6;}.h{fill:#cc8752;}.i{fill:#e9a357;}.j{fill:#946936;}.k{fill:#fff;}</style></defs><line class="a" x1="330.89281" y1="27.95783" x2="26.08219" y2="27.95783"/><line class="b" x1="330.89281" y1="27.39219" x2="26.08219" y2="27.39219"/><polygon class="c" points="23.802 32.218 23.802 23.698 20.239 21.015 19.367 27.958 20.239 34.9 23.802 32.218"/><rect class="d" x="19.45525" y="26.68102" width="10.70039" height="2.5535" rx="1.27675" transform="translate(52.76321 3.15233) rotate(90)"/><polygon class="e" points="20.239 21.015 0 27.958 20.239 34.9 19.367 27.958 20.239 21.015"/><path class="f" d="M53.47535,31.7557v-.4354a16.72275,16.72275,0,0,1,0-6.65079v-.48674"/><path class="f" d="M48.80468,31.7557v-.4354a16.72275,16.72275,0,0,1,0-6.65079v-.48674"/><path class="f" d="M44.134,31.7557v-.4354a16.72275,16.72275,0,0,1,0-6.65079v-.48674"/><path class="f" d="M39.46332,31.7557v-.4354a16.72275,16.72275,0,0,1,0-6.65079v-.48674"/><path class="f" d="M327.08806,31.7557v-.4354a16.72275,16.72275,0,0,1,0-6.65079v-.48674"/><path class="f" d="M322.41739,31.7557v-.4354a16.72275,16.72275,0,0,1,0-6.65079v-.48674"/><path class="f" d="M317.74671,31.7557v-.4354a16.72275,16.72275,0,0,1,0-6.65079v-.48674"/><path class="f" d="M313.076,31.7557v-.4354a16.72275,16.72275,0,0,1,0-6.65079v-.48674"/><path class="f" d="M308.40536,31.7557v-.4354a16.72275,16.72275,0,0,1,0-6.65079v-.48674"/><path class="f" d="M303.73468,31.7557v-.4354a16.72275,16.72275,0,0,1,0-6.65079v-.48674"/><path class="f" d="M299.064,31.7557v-.4354a16.72275,16.72275,0,0,1,0-6.65079v-.48674"/><path class="f" d="M294.39333,31.7557v-.4354a16.72275,16.72275,0,0,1,0-6.65079v-.48674"/><path class="f" d="M289.72265,31.7557v-.4354a16.72275,16.72275,0,0,1,0-6.65079v-.48674"/><path class="f" d="M285.052,31.7557v-.4354a16.72275,16.72275,0,0,1,0-6.65079v-.48674"/><path class="f" d="M280.3813,31.7557v-.4354a16.72275,16.72275,0,0,1,0-6.65079v-.48674"/><path class="f" d="M275.71062,31.7557v-.4354a16.72275,16.72275,0,0,1,0-6.65079v-.48674"/><polygon class="g" points="19.367 27.958 0 27.958 20.239 34.9 19.367 27.958"/><polygon class="h" points="290.686 30.752 301.415 39.878 332.894 39.878 322.165 30.752 290.686 30.752"/><polygon class="i" points="322.165 30.752 327.164 37.998 301.954 37.998 290.686 30.752 301.415 39.878 332.894 39.878 322.165 30.752"/><polygon class="j" points="322.165 30.752 292.432 32.237 290.686 30.752 322.165 30.752"/><polygon class="h" points="290.686 25.033 301.415 15.907 332.894 15.907 322.165 25.033 290.686 25.033"/><polygon class="j" points="326.455 21.384 290.686 25.033 322.165 25.033 326.455 21.384"/><polygon class="i" points="332.894 15.907 303.195 17.261 290.686 25.033 301.415 15.907 332.894 15.907"/><rect class="k" x="36.01984" y="9.34223" width="250.83123" height="36.09991" rx="6.92596"/><rect class="k" x="36.01984" width="250.83123" height="56.27881" rx="8.64767"/><path class="d" d="M73.44294,18.55224a.40086.40086,0,0,1-.41406-.41406V12.86376a.40086.40086,0,0,1,.41406-.41406h.86426a.37281.37281,0,0,1,.28759.11719.42307.42307,0,0,1,.10791.29687v5.27442a.42142.42142,0,0,1-.10791.29687.37281.37281,0,0,1-.28759.11719Z"/><path class="d" d="M78.82477,13.92626v1.4043a3.55166,3.55166,0,0,0,.1709,1.0791.78624.78624,0,0,0,.54883.54l.666.18066a.34835.34835,0,0,1,.22558.18848.78633.78633,0,0,1,.08057.36914v.4502a.30078.30078,0,0,1-.19776.28808.74871.74871,0,0,1-.43212.05371l-.70166-.14355a2.3031,2.3031,0,0,1-.99024-.51367,2.22914,2.22914,0,0,1-.62109-1.00782,5.01824,5.01824,0,0,1-.207-1.53906V12.86376a.42307.42307,0,0,1,.10791-.29687.39485.39485,0,0,1,.30615-.11719h3.33008a4.3735,4.3735,0,0,1,2.25.53125,3.40922,3.40922,0,0,1,1.36816,1.53027,6.01312,6.01312,0,0,1,.50391,2.40332q.01758.26954.01758.67481c0,.26953-.00586.49511-.01758.6748a6.03485,6.03485,0,0,1-.50391,2.39356,3.39141,3.39141,0,0,1-1.36816,1.53906,4.36392,4.36392,0,0,1-2.25.53125H77.99665a.40086.40086,0,0,1-.41406-.41406V21.6665a.39938.39938,0,0,1,.41406-.41407h3.02441a2.36864,2.36864,0,0,0,1.917-.80175,3.67444,3.67444,0,0,0,.74707-2.24024q.01756-.271.01757-.62109,0-.35157-.01757-.6211a3.45964,3.45964,0,0,0-.7295-2.24121,2.42087,2.42087,0,0,0-1.93457-.80078Z"/><path class="d" d="M89.67829,13.92626l-2.1416-.01855a.41817.41817,0,0,1-.29688-.10742.37323.37323,0,0,1-.11718-.28809V10.36181a.40085.40085,0,0,1,.41406-.41406h.75586a.39451.39451,0,0,1,.30566.11718.42125.42125,0,0,1,.1084.29688V12.4497h1.00781Zm-.03564,8.96387a.33129.33129,0,0,1-.30616-.04492.31959.31959,0,0,1-.144-.2793v-.82812a.45253.45253,0,0,1,.09912-.28809.65026.65026,0,0,1,.29688-.19727l.70214-.2705a6.603,6.603,0,0,0,1.28711-.73829,2.883,2.883,0,0,0,.918-1.1875,4.97192,4.97192,0,0,0,.333-1.98046,5.09391,5.09391,0,0,0-.2793-1.86231,1.76812,1.76812,0,0,0-.93554-.99023,4.42719,4.42719,0,0,0-1.791-.29688h-.54a.40088.40088,0,0,1-.41406-.41406v-.64844a.40088.40088,0,0,1,.41406-.41406h.792a6.07449,6.07449,0,0,1,2.60987.46875,2.76391,2.76391,0,0,1,1.395,1.50293,7.26834,7.26834,0,0,1,.42285,2.709,6.25159,6.25159,0,0,1-.3418,2.17774,4.82831,4.82831,0,0,1-.92724,1.5664,5.37171,5.37171,0,0,1-1.32276,1.07032,8.70721,8.70721,0,0,1-1.53027.69336Z"/><path class="d" d="M101.68415,22.728a.40086.40086,0,0,1-.41406-.41406v-9.4502a.40086.40086,0,0,1,.41406-.41406h3.51025a5.85011,5.85011,0,0,1,2.56494.49512,3.2725,3.2725,0,0,1,1.521,1.47656,5.34733,5.34733,0,0,1,.50391,2.457V22.314a.40011.40011,0,0,1-.41358.41406h-.81054a.39449.39449,0,0,1-.30567-.11719.41962.41962,0,0,1-.1084-.29687V16.93212a3.23813,3.23813,0,0,0-.71972-2.24121,2.985,2.985,0,0,0-2.32227-.80078h-2.1958V22.314a.41924.41924,0,0,1-.10791.29687.3732.3732,0,0,1-.28809.11719Z"/><path class="d" d="M112.86188,22.728a.40088.40088,0,0,1-.41406-.41406v-9.4502a.40088.40088,0,0,1,.41406-.41406h.84619a.39631.39631,0,0,1,.30616.11719.42311.42311,0,0,1,.10791.29687V22.314a.42146.42146,0,0,1-.10791.29687.39631.39631,0,0,1-.30616.11719Z"/><path class="d" d="M117.30817,22.728a.40013.40013,0,0,1-.41406-.41406v-9.4502a.40013.40013,0,0,1,.41406-.41406h.84571a.39448.39448,0,0,1,.30566.11719.42121.42121,0,0,1,.1084.29687V22.314a.41958.41958,0,0,1-.1084.29687.39448.39448,0,0,1-.30566.11719Z"/><path class="d" d="M125.78571,22.90771a4.494,4.494,0,0,1-3.47412-1.16992,4.64112,4.64112,0,0,1-1.062-3.23926V12.86376a.40088.40088,0,0,1,.41406-.41406h.73828a.3952.3952,0,0,1,.30567.11719.42126.42126,0,0,1,.1084.29687v5.544a3.14956,3.14956,0,0,0,.73779,2.23242,3.6092,3.6092,0,0,0,4.41894.07226,3.12947,3.12947,0,0,0,.729-2.16015,4.97809,4.97809,0,0,0,.00879-.54883q-.00879-.36913-.00879-.74707v-.55859a3.379,3.379,0,0,0-.63916-2.17774,1.99941,1.99941,0,0,0-1.57471-.68359,2.73327,2.73327,0,0,0-.70215.10742,2.27239,2.27239,0,0,0-.666.28809.359.359,0,0,1-.3418.00878.28258.28258,0,0,1-.18018-.27832V13.4038a1.23312,1.23312,0,0,1,.03565-.31445.44337.44337,0,0,1,.19824-.24317,3.72289,3.72289,0,0,1,.7832-.35156,3.659,3.659,0,0,1,1.08887-.13476,3.98858,3.98858,0,0,1,1.96191.4414,2.87177,2.87177,0,0,1,1.21485,1.3584,5.8404,5.8404,0,0,1,.4414,2.3584q.01758.18018.01758.6123v.88184q0,.4497-.01758.62988a5.75216,5.75216,0,0,1-.49511,2.33106,3.04615,3.04615,0,0,1-1.43994,1.44922A5.89624,5.89624,0,0,1,125.78571,22.90771Z"/><path class="d" d="M132.55427,22.728a.34189.34189,0,0,1-.27051-.126.3914.3914,0,0,1-.08985-.30566l1.53028-8.82031a.45028.45028,0,0,1,.16211-.2793.35756.35756,0,0,1,.30566-.0625l.71973.03613a.40329.40329,0,0,1,.28808.15235.366.366,0,0,1,.07227.31543l-1.43994,8.6582a.47083.47083,0,0,1-.15283.30566.44856.44856,0,0,1-.31543.126Zm4.55371-8.80176h-4.374a.39448.39448,0,0,1-.30566-.11719.41956.41956,0,0,1-.1084-.29687v-.64844a.42121.42121,0,0,1,.1084-.29687.39448.39448,0,0,1,.30566-.11719h4.57227a3.80508,3.80508,0,0,1,1.98877.52246,3.58007,3.58007,0,0,1,1.36767,1.50293,5.2063,5.2063,0,0,1,.49512,2.36719V22.314a.42142.42142,0,0,1-.10791.29687.39558.39558,0,0,1-.30615.11719h-4.64356a.40088.40088,0,0,1-.41406-.41406v-.61231a.40088.40088,0,0,1,.41406-.41406h3.41993V16.9497a3.79782,3.79782,0,0,0-.31543-1.60156,2.48212,2.48212,0,0,0-.86377-1.05274A2.159,2.159,0,0,0,137.108,13.92626Z"/><path class="d" d="M143.80329,22.728a.40009.40009,0,0,1-.41357-.41406v-.61231a.40009.40009,0,0,1,.41357-.41406h5.166V16.93212a3.23813,3.23813,0,0,0-.71973-2.24121,2.985,2.985,0,0,0-2.32227-.80078H143.984a.40013.40013,0,0,1-.41406-.41406v-.61231a.40013.40013,0,0,1,.41406-.41406h2.0337a5.83382,5.83382,0,0,1,2.57373.50391,3.36162,3.36162,0,0,1,1.53906,1.48535,5.2209,5.2209,0,0,1,.51318,2.43945v4.40918h.666a.40088.40088,0,0,1,.41406.41406V22.314a.40088.40088,0,0,1-.41406.41406Z"/><path class="d" d="M158.20368,22.728a.40088.40088,0,0,1-.41406-.41406v-9.4502a.40088.40088,0,0,1,.41406-.41406h3.438a5.793,5.793,0,0,1,2.55615.49512,3.24271,3.24271,0,0,1,1.50293,1.46679,5.32726,5.32726,0,0,1,.49512,2.43067V22.314a.41958.41958,0,0,1-.1084.29687.39448.39448,0,0,1-.30566.11719Zm1.13379-1.44043h5.25586V16.93212a3.23813,3.23813,0,0,0-.71973-2.24121,2.98493,2.98493,0,0,0-2.32226-.80078h-2.21387Z"/><path class="d" d="M169.16559,18.55224a.40088.40088,0,0,1-.41406-.41406V12.86376a.40088.40088,0,0,1,.41406-.41406h.86426a.37392.37392,0,0,1,.28809.11719.42307.42307,0,0,1,.10791.29687v5.27442a.42142.42142,0,0,1-.10791.29687.37392.37392,0,0,1-.28809.11719Z"/><path class="d" d="M173.12556,22.728a.40088.40088,0,0,1-.41407-.41406v-.62989a.40088.40088,0,0,1,.41407-.41406h4.87793l-5.63379-8.11816c-.03614-.07129-.06641-.13477-.09034-.18848a.38257.38257,0,0,1-.03564-.15332.33313.33313,0,0,1,.1167-.252.37373.37373,0,0,1,.26123-.1084h.86377a.436.436,0,0,1,.30615.09961,1.1139,1.1139,0,0,1,.17969.207l5.86816,8.40527a1.78473,1.78473,0,0,1,.15332.26172.69834.69834,0,0,1,.0625.29688V22.314a.40013.40013,0,0,1-.41406.41406Zm4.55371-4.10352-.792-1.17089a2.37565,2.37565,0,0,0,1.36817-1.125,4.05782,4.05782,0,0,0,.41406-1.917V12.86376a.40088.40088,0,0,1,.41406-.41406h.75586a.3732.3732,0,0,1,.28809.11719.42091.42091,0,0,1,.10791.29687v1.76465a4.55887,4.55887,0,0,1-.648,2.4834A3.78716,3.78716,0,0,1,177.67927,18.6245Z"/><path class="d" d="M182.97126,18.55224a.40086.40086,0,0,1-.41406-.41406V12.86376a.40086.40086,0,0,1,.41406-.41406h.86426a.37388.37388,0,0,1,.28808.11719.42307.42307,0,0,1,.10791.29687v5.27442a.42142.42142,0,0,1-.10791.29687.37388.37388,0,0,1-.28808.11719Z"/><path class="d" d="M187.30915,22.728a.40086.40086,0,0,1-.41406-.41406v-9.4502a.40086.40086,0,0,1,.41406-.41406h3.51025a5.85011,5.85011,0,0,1,2.56494.49512,3.2725,3.2725,0,0,1,1.521,1.47656,5.34733,5.34733,0,0,1,.50391,2.457V22.314a.40011.40011,0,0,1-.41358.41406h-.81054a.39449.39449,0,0,1-.30567-.11719.41962.41962,0,0,1-.1084-.29687V16.93212a3.23813,3.23813,0,0,0-.71972-2.24121,2.985,2.985,0,0,0-2.32227-.80078h-2.1958V22.314a.41924.41924,0,0,1-.10791.29687.3732.3732,0,0,1-.28809.11719Z"/><path class="d" d="M209.73688,22.728a.40088.40088,0,0,1-.41406-.41406V16.93212a3.23809,3.23809,0,0,0-.71973-2.24121,2.98563,2.98563,0,0,0-2.32226-.80078H202.897a.40086.40086,0,0,1-.41406-.41406v-.61231a.40086.40086,0,0,1,.41406-.41406h3.47363a4.69413,4.69413,0,0,1,3.46533,1.13476,4.48391,4.48391,0,0,1,1.125,3.29395V22.314a.40012.40012,0,0,1-.41406.41406Zm-6.83984,0a.40086.40086,0,0,1-.41406-.41406V16.30224a.40085.40085,0,0,1,.41406-.41406h.82812a.37393.37393,0,0,1,.28809.11718.42111.42111,0,0,1,.10742.29688V22.314a.42109.42109,0,0,1-.10742.29687.3739.3739,0,0,1-.28809.11719Z"/><path class="d" d="M219.04255,22.728a.40086.40086,0,0,1-.41406-.41406V16.93212a3.23576,3.23576,0,0,0-.71973-2.24121,2.985,2.985,0,0,0-2.32227-.80078h-2.35742a.40088.40088,0,0,1-.41406-.41406v-.61231a.40088.40088,0,0,1,.41406-.41406h2.44775a5.94146,5.94146,0,0,1,2.565.48633,3.22766,3.22766,0,0,1,1.521,1.46679,5.30357,5.30357,0,0,1,.5044,2.43946V22.314a.40088.40088,0,0,1-.41407.41406Z"/><path class="d" d="M223.21882,18.55224a.40013.40013,0,0,1-.41407-.41406V12.86376a.40013.40013,0,0,1,.41407-.41406h.86377a.37318.37318,0,0,1,.28808.11719.42121.42121,0,0,1,.1084.29687v5.27442a.41958.41958,0,0,1-.1084.29687.37318.37318,0,0,1-.28808.11719Z"/><path class="d" d="M227.43024,18.55224a.40088.40088,0,0,1-.41406-.41406V12.86376a.40088.40088,0,0,1,.41406-.41406h.86426a.37392.37392,0,0,1,.28809.11719.42311.42311,0,0,1,.10791.29687v5.27442a.42146.42146,0,0,1-.10791.29687.37392.37392,0,0,1-.28809.11719Z"/><path class="d" d="M241.20026,16.93212a3.20843,3.20843,0,0,0-.729-2.24121,3.01469,3.01469,0,0,0-2.33106-.80078h-2.6455a.40013.40013,0,0,1-.41407-.41406v-.61231a.40013.40013,0,0,1,.41407-.41406h2.73535a6.08566,6.08566,0,0,1,2.583.47754,3.19889,3.19889,0,0,1,1.52148,1.43945,5.32876,5.32876,0,0,1,.50391,2.47559v7.7041a.40088.40088,0,0,1-.41407.41406h-.81006a.39559.39559,0,0,1-.30615-.11719.42311.42311,0,0,1-.10791-.29687Z"/><path class="d" d="M245.79059,18.55224a.40013.40013,0,0,1-.41406-.41406V12.86376a.40013.40013,0,0,1,.41406-.41406h.86377a.37213.37213,0,0,1,.2876.11719.42121.42121,0,0,1,.1084.29687v5.27442a.41958.41958,0,0,1-.1084.29687.37213.37213,0,0,1-.2876.11719Z"/><path class="d" d="M249.55231,22.728a.40088.40088,0,0,1-.41406-.41406v-.61231a.40088.40088,0,0,1,.41406-.41406h5.07618v1.09863a.29371.29371,0,0,1-.11719.26074.51292.51292,0,0,1-.29688.08106Zm3.97754,0a.34282.34282,0,0,1-.27832-.11719.64188.64188,0,0,1-.13525-.29687l-.34229-5.56153a14.21935,14.21935,0,0,0-.13476-1.53027,1.86385,1.86385,0,0,0-.43213-1.00781,1.45211,1.45211,0,0,0-1.10694-.36035h-.73828a.40011.40011,0,0,1-.41357-.41407v-.6123a.39857.39857,0,0,1,.41357-.41309h.75635a3.90864,3.90864,0,0,1,1.65576.29688,2.25379,2.25379,0,0,1,.98145.86328,4.027,4.027,0,0,1,.5039,1.35937,13.31254,13.31254,0,0,1,.207,1.76368l.34179,5.61621a.33969.33969,0,0,1-.10791.29687.43393.43393,0,0,1-.30615.11719Z"/><path class="d" d="M257.45417,22.728a.40013.40013,0,0,1-.41406-.41406v-9.4502a.40013.40013,0,0,1,.41406-.41406h3.51025a5.84938,5.84938,0,0,1,2.56446.49512,3.2736,3.2736,0,0,1,1.52148,1.47656,5.34733,5.34733,0,0,1,.50391,2.457V22.314a.40088.40088,0,0,1-.41407.41406h-.81a.3956.3956,0,0,1-.30616-.11719.42146.42146,0,0,1-.10791-.29687V16.93212a3.23591,3.23591,0,0,0-.72021-2.24121,2.98378,2.98378,0,0,0-2.32178-.80078h-2.1958V22.314a.41958.41958,0,0,1-.1084.29687.37247.37247,0,0,1-.28808.11719Z"/><path class="d" d="M275.47175,22.728a.40011.40011,0,0,1-.41358-.41406V16.93212a3.23591,3.23591,0,0,0-.72021-2.24121,2.9852,2.9852,0,0,0-2.32178-.80078H268.6319a.40013.40013,0,0,1-.41406-.41406v-.61231a.40013.40013,0,0,1,.41406-.41406H272.106a4.69367,4.69367,0,0,1,3.46485,1.13476,4.48192,4.48192,0,0,1,1.125,3.29395V22.314a.40088.40088,0,0,1-.41406.41406Zm-6.83985,0a.40013.40013,0,0,1-.41406-.41406V16.30224a.40012.40012,0,0,1,.41406-.41406h.82764a.37251.37251,0,0,1,.28809.11718.41964.41964,0,0,1,.10839.29688V22.314a.41962.41962,0,0,1-.10839.29687.37248.37248,0,0,1-.28809.11719Z"/><path class="d" d="M149.83356,44.34814a.40088.40088,0,0,1-.41406-.41407V34.48388a.40086.40086,0,0,1,.41406-.41406h.84619a.39634.39634,0,0,1,.30616.11718.42315.42315,0,0,1,.10791.29688v9.45019a.42149.42149,0,0,1-.10791.29688.39635.39635,0,0,1-.30616.11719Z"/><path class="d" d="M153.55964,35.51025a.40013.40013,0,0,1-.41407-.41407v-.6123a.40012.40012,0,0,1,.41407-.41406h7.72217a.40086.40086,0,0,1,.41406.41406v.6123a.40088.40088,0,0,1-.41406.41407Zm4.85986,8.83789a.34993.34993,0,0,1-.396-.39551V37.52587a4.3559,4.3559,0,0,1,.252-1.65527q.252-.59473.63037-.59473h1.76367q-.4497,0-.729.68457a4.49252,4.49252,0,0,0-.27881,1.69141v6.30078a.36065.36065,0,0,1-.126.28808.45837.45837,0,0,1-.30615.10743Z"/><path class="d" d="M163.83747,44.34814a.341.341,0,0,1-.27-.126.39164.39164,0,0,1-.09033-.30566l1.53027-8.82032a.45478.45478,0,0,1,.16211-.27929.3579.3579,0,0,1,.30566-.0625l.72022.03613a.40429.40429,0,0,1,.28809.15234.36653.36653,0,0,1,.07177.31543l-1.43945,8.65821a.47371.47371,0,0,1-.15332.30566.44742.44742,0,0,1-.31494.126Zm4.55371-8.80176h-4.374a.3952.3952,0,0,1-.30567-.11719.41962.41962,0,0,1-.1084-.29687v-.64844a.4213.4213,0,0,1,.1084-.29688.39523.39523,0,0,1,.30567-.11718h4.57226a3.8056,3.8056,0,0,1,1.98926.52246,3.5801,3.5801,0,0,1,1.36768,1.50293,5.20639,5.20639,0,0,1,.49511,2.36718v5.47168a.42144.42144,0,0,1-.10791.29688.39631.39631,0,0,1-.30615.11719h-4.644a.40086.40086,0,0,1-.41406-.41407v-.6123a.39932.39932,0,0,1,.41406-.41309h3.41992V38.56982a3.798,3.798,0,0,0-.31494-1.60157,2.48209,2.48209,0,0,0-.86377-1.05273A2.16157,2.16157,0,0,0,168.39118,35.54638Z"/><path class="d" d="M177.03181,35.54638l-2.14258-.01856a.41975.41975,0,0,1-.29688-.10742.37286.37286,0,0,1-.1167-.28808V31.98193a.40011.40011,0,0,1,.41358-.41407h.75634a.39635.39635,0,0,1,.30616.11719.42315.42315,0,0,1,.10791.29688v2.08789h1.0083Zm-.03614,8.96387a.33127.33127,0,0,1-.30615-.04493.31957.31957,0,0,1-.144-.27929V43.3579a.45731.45731,0,0,1,.09912-.28808.6502.6502,0,0,1,.29687-.19727l.70215-.27051a6.57038,6.57038,0,0,0,1.28662-.73828,2.87108,2.87108,0,0,0,.918-1.1875,4.96328,4.96328,0,0,0,.333-1.98047,5.1067,5.1067,0,0,0-.27832-1.8623,1.76981,1.76981,0,0,0-.93652-.99024,4.42578,4.42578,0,0,0-1.791-.29687h-.54a.40088.40088,0,0,1-.41406-.41406v-.64844a.40086.40086,0,0,1,.41406-.41406h.792a6.07831,6.07831,0,0,1,2.61035.46875,2.76387,2.76387,0,0,1,1.395,1.50293,7.26832,7.26832,0,0,1,.42286,2.709,6.23959,6.23959,0,0,1-.34229,2.17773,4.81878,4.81878,0,0,1-.92676,1.56641,5.35593,5.35593,0,0,1-1.32324,1.07031,8.71741,8.71741,0,0,1-1.52978.69336Z"/><path class="d" d="M184.05134,44.34814a.40088.40088,0,0,1-.41407-.41407v-.6123a.39934.39934,0,0,1,.41407-.41309h5.07617v1.09766a.29369.29369,0,0,1-.11719.26074.513.513,0,0,1-.29687.08106Zm3.97754,0a.34284.34284,0,0,1-.27832-.11719.64192.64192,0,0,1-.13526-.29688l-.34228-5.56152a14.22168,14.22168,0,0,0-.13477-1.53027,1.86392,1.86392,0,0,0-.43213-1.00782,1.45214,1.45214,0,0,0-1.10693-.36035h-.73828a.40009.40009,0,0,1-.41358-.41406v-.6123a.39857.39857,0,0,1,.41358-.41309h.75634a3.90854,3.90854,0,0,1,1.65577.29688,2.25371,2.25371,0,0,1,.98144.86328,4.02724,4.02724,0,0,1,.50391,1.35937,13.31247,13.31247,0,0,1,.207,1.76367l.3418,5.61621a.33977.33977,0,0,1-.10791.29688.434.434,0,0,1-.30616.11719Z"/><path class="d" d="M196.651,42.99853a3.84417,3.84417,0,0,0,1.97119-.43262,2.98439,2.98439,0,0,0,1.22412-1.28711,4.19278,4.19278,0,0,0,.42285-1.917V34.48388a.40086.40086,0,0,1,.41406-.41406h.75586a.37323.37323,0,0,1,.28809.11718.421.421,0,0,1,.10791.29688v5.00391a5.6938,5.6938,0,0,1-.35987,2.0791,4.39179,4.39179,0,0,1-2.60107,2.583,5.16962,5.16962,0,0,1-2.00684.30665h-1.35009a4.14156,4.14156,0,0,1-2.106-.54,3.88844,3.88844,0,0,1-1.47607-1.5127,4.555,4.555,0,0,1-.54-2.25V34.48388a.40085.40085,0,0,1,.41406-.41406h.75586a.40086.40086,0,0,1,.41406.41406l.05371,5.31055a3.13586,3.13586,0,0,0,.86426,2.376,3.046,3.046,0,0,0,2.19629.82813Zm-3.9961-2.10645-.03564-1.31347a4.41662,4.41662,0,0,0,2.03369-.40528,2.15128,2.15128,0,0,0,.98144-1.03515,3.56527,3.56527,0,0,0,.27881-1.42188V34.48388a.421.421,0,0,1,.10791-.29688.39563.39563,0,0,1,.30616-.11718h.73779a.40086.40086,0,0,1,.41406.41406v2.30469a4.24517,4.24517,0,0,1-.522,2.10547,3.63845,3.63845,0,0,1-1.59326,1.47656A5.852,5.852,0,0,1,192.65485,40.89208Z"/><path class="d" d="M211.10505,34.62841h.45019a.55109.55109,0,0,1,.40479.13477.39874.39874,0,0,1,.1167.333q-.14356.75587-.24268,1.36817-.09888.6123-.13525,1.21484-.0359.60352-.03614,1.35938l.0542,4.8955a.40011.40011,0,0,1-.41357.41407l-2.55664-.03614a.42331.42331,0,0,1-.29688-.10742.39574.39574,0,0,1-.1167-.30664v-.57617a.39857.39857,0,0,1,.41358-.41309l1.38623.01758v-3.8164q0-.73683.01807-1.3584a11.0333,11.0333,0,0,1,.10791-1.251,14.12816,14.12816,0,0,1,.28808-1.42187.75785.75785,0,0,1,.17139-.32422A.50706.50706,0,0,1,211.10505,34.62841Zm-1.62012.88184a.40088.40088,0,0,1-.41406-.41407v-.6123a.40086.40086,0,0,1,.41406-.41406h3.90625a5.848,5.848,0,0,1,2.56445.49511,3.26915,3.26915,0,0,1,1.52149,1.47657,5.25893,5.25893,0,0,1,.5039,2.42089v5.47168a.40086.40086,0,0,1-.41406.41407h-.81006a.39563.39563,0,0,1-.30615-.11719.42111.42111,0,0,1-.10742-.29688V38.55224a3.23375,3.23375,0,0,0-.7207-2.24121,2.98329,2.98329,0,0,0-2.32129-.80078Z"/><path class="d" d="M221.05866,44.34814a.40013.40013,0,0,1-.41406-.41407V34.48388a.40012.40012,0,0,1,.41406-.41406h.84619a.39523.39523,0,0,1,.30567.11718.42129.42129,0,0,1,.10839.29688v9.45019a.41964.41964,0,0,1-.10839.29688.39524.39524,0,0,1-.30567.11719Z"/><path class="d" d="M224.92878,44.34814a.40012.40012,0,0,1-.41406-.41407v-.6123a.39859.39859,0,0,1,.41406-.41309h5.07568v1.09766a.29455.29455,0,0,1-.1167.26074.51457.51457,0,0,1-.29736.08106Zm3.978,0a.34553.34553,0,0,1-.2793-.11719.64639.64639,0,0,1-.13477-.29688l-.34179-5.56152a14.21,14.21,0,0,0-.13526-1.53027,1.86392,1.86392,0,0,0-.43213-1.00782,1.45139,1.45139,0,0,0-1.10693-.36035h-.73779a.40086.40086,0,0,1-.41407-.41406v-.6123a.39934.39934,0,0,1,.41407-.41309h.75586a3.91243,3.91243,0,0,1,1.65625.29688,2.24573,2.24573,0,0,1,.98046.86328,3.98621,3.98621,0,0,1,.50391,1.35937,13.15062,13.15062,0,0,1,.207,1.76367l.34229,5.61621a.33842.33842,0,0,1-.10791.29688.434.434,0,0,1-.30616.11719Z"/><path class="d" d="M232.83063,44.34814a.40088.40088,0,0,1-.41406-.41407V34.48388a.40086.40086,0,0,1,.41406-.41406h.84571a.39562.39562,0,0,1,.30615.11718.42311.42311,0,0,1,.10791.29688v9.45019a.42144.42144,0,0,1-.10791.29688.39563.39563,0,0,1-.30615.11719Z"/><path class="d" d="M242.67634,44.34814a.40088.40088,0,0,1-.41407-.41407V38.55224a3.23813,3.23813,0,0,0-.71972-2.24121,2.98563,2.98563,0,0,0-2.32227-.80078h-2.35791a.40088.40088,0,0,1-.41406-.41407v-.6123a.40086.40086,0,0,1,.41406-.41406h2.44776a5.94393,5.94393,0,0,1,2.56543.48632,3.22657,3.22657,0,0,1,1.5205,1.4668,5.30634,5.30634,0,0,1,.5044,2.43945v5.47168a.40088.40088,0,0,1-.41406.41407Z"/><path class="d" d="M250.43415,44.51025a.31076.31076,0,0,1-.29688-.04493.32687.32687,0,0,1-.13476-.27929V43.3579a.45685.45685,0,0,1,.09863-.28808.65284.65284,0,0,1,.29688-.19727l.68457-.27051a6.41642,6.41642,0,0,0,1.30468-.73828,2.87913,2.87913,0,0,0,.918-1.1875,6.10721,6.10721,0,0,0,.04492-3.84277,1.80146,1.80146,0,0,0-.94482-.99024,4.36942,4.36942,0,0,0-1.773-.29687h-3.6543a.40088.40088,0,0,1-.41406-.41406v-.64844a.40086.40086,0,0,1,.41406-.41406h3.88819a6.06062,6.06062,0,0,1,2.61865.46875,2.77067,2.77067,0,0,1,1.38672,1.50293,7.27836,7.27836,0,0,1,.42285,2.709,6.23983,6.23983,0,0,1-.34228,2.17773,4.81976,4.81976,0,0,1-.92725,1.56641,5.42861,5.42861,0,0,1-1.31348,1.07031,8.43658,8.43658,0,0,1-1.52148.69336Zm-3.45606,3.27636a.40086.40086,0,0,1-.41406-.41406V37.92236a.40088.40088,0,0,1,.41406-.41407h.792a.39563.39563,0,0,1,.30615.11719.42144.42144,0,0,1,.10791.29688v9.45019a.42311.42311,0,0,1-.10791.29688.39562.39562,0,0,1-.30615.11718Z"/><path class="d" d="M257.72419,45.33837a.36273.36273,0,0,1-.3418-.02734.30947.30947,0,0,1-.16211-.2793V44.4204a.67447.67447,0,0,1,.07227-.30664.38642.38642,0,0,1,.2334-.19726l3.79834-1.24219a4.124,4.124,0,0,0,1.584-.88184,2.96353,2.96353,0,0,0,.78272-1.26074,5.20563,5.20563,0,0,0,.22558-1.56543V34.48388a.40012.40012,0,0,1,.41406-.41406h.80957a.39563.39563,0,0,1,.30616.11718.42315.42315,0,0,1,.10791.29688v4.98633a4.31536,4.31536,0,0,1-.46778,1.9707,4.8554,4.8554,0,0,1-1.34131,1.62012,6.12753,6.12753,0,0,1-2.061,1.05273Zm2.3584-1.42187-2.53809-9.126a2.01326,2.01326,0,0,0-.06348-.21582.42012.42012,0,0,1-.02685-.14453.36966.36966,0,0,1,.35986-.36035h.88233a.37207.37207,0,0,1,.41357.2705l2.50244,9.16211Z"/><path class="d" d="M275.47175,44.34814a.40011.40011,0,0,1-.41358-.41407V38.55224A3.23591,3.23591,0,0,0,274.338,36.311a2.98517,2.98517,0,0,0-2.32178-.80078H268.6319a.40013.40013,0,0,1-.41406-.41407v-.6123a.40012.40012,0,0,1,.41406-.41406H272.106a4.69367,4.69367,0,0,1,3.46485,1.13476,4.48192,4.48192,0,0,1,1.125,3.294v5.43554a.40088.40088,0,0,1-.41406.41407Zm-6.83985,0a.40013.40013,0,0,1-.41406-.41407V37.92236a.40013.40013,0,0,1,.41406-.41407h.82764a.37252.37252,0,0,1,.28809.11719.41964.41964,0,0,1,.10839.29688v6.01171a.41964.41964,0,0,1-.10839.29688.37252.37252,0,0,1-.28809.11719Z"/></svg>
